{
  "accessors": [
    {
      "bufferView": 2,
      "componentType": 5126,
      "count": 65532,
      "max": [
        0.06251698732376099,
        0.06439319252967834,
        0.10741978883743286
      ],
      "min": [
        -0.0625763088464737,
        -0.06394034624099731,
        0.0
      ],
      "type": "VEC3"
    },
    {
      "bufferView": 2,
      "byteOffset": 786384,
      "componentType": 5126,
      "count": 65532,
      "max": [
        0.9999886751174927,
        0.9998918771743774,
        1.0
      ],
      "min": [
        -0.9999938011169434,
        -0.9999163150787354,
        -0.9996445178985596
      ],
      "type": "VEC3"
    },
    {
      "bufferView": 1,
      "componentType": 5126,
      "count": 65532,
      "max": [
        0.9996576309204102,
        0.9997557401657104
      ],
      "min": [
        0.000244140625,
        0.0003110958496108651
      ],
      "type": "VEC2"
    },
    {
      "bufferView": 1,
      "byteOffset": 524256,
      "componentType": 5126,
      "count": 65532,
      "max": [
        0.9996576309204102,
        0.9997557401657104
      ],
      "min": [
        0.000244140625,
        0.0003110958496108651
      ],
      "type": "VEC2"
    },
    {
      "bufferView": 0,
      "componentType": 5125,
      "count": 306993,
      "type": "SCALAR"
    },
    {
      "bufferView": 2,
      "byteOffset": 1572768,
      "componentType": 5126,
      "count": 65534,
      "max": [
        0.06241390109062195,
        0.0639403760433197,
        0.1053919792175293
      ],
      "min": [
        -0.06241391599178314,
        -0.06398950517177582,
        0.0
      ],
      "type": "VEC3"
    },
    {
      "bufferView": 2,
      "byteOffset": 2359176,
      "componentType": 5126,
      "count": 65534,
      "max": [
        0.9999796152114868,
        0.9998992681503296,
        0.9999999403953552
      ],
      "min": [
        -0.9999415874481201,
        -0.9999712705612183,
        -0.9997755289077759
      ],
      "type": "VEC3"
    },
    {
      "bufferView": 1,
      "byteOffset": 1048512,
      "componentType": 5126,
      "count": 65534,
      "max": [
        0.9997283220291138,
        0.9870604276657104
      ],
      "min": [
        0.000244140625,
        0.0002501799026504159
      ],
      "type": "VEC2"
    },
    {
      "bufferView": 1,
      "byteOffset": 1572784,
      "componentType": 5126,
      "count": 65534,
      "max": [
        0.9997283220291138,
        0.9870604276657104
      ],
      "min": [
        0.000244140625,
        0.0002501799026504159
      ],
      "type": "VEC2"
    },
    {
      "bufferView": 0,
      "byteOffset": 1227972,
      "componentType": 5125,
      "count": 290142,
      "type": "SCALAR"
    },
    {
      "bufferView": 2,
      "byteOffset": 3145584,
      "componentType": 5126,
      "count": 44377,
      "max": [
        0.043545931577682495,
        0.044431209564208984,
        0.10738548636436462
      ],
      "min": [
        -0.0313396155834198,
        -0.0458545982837677,
        0.034322112798690796
      ],
      "type": "VEC3"
    },
    {
      "bufferView": 2,
      "byteOffset": 3678108,
      "componentType": 5126,
      "count": 44377,
      "max": [
        0.9999955296516418,
        0.999973475933075,
        0.9999212026596069
      ],
      "min": [
        -0.9999638795852661,
        -0.999976634979248,
        -0.9998009204864502
      ],
      "type": "VEC3"
    },
    {
      "bufferView": 1,
      "byteOffset": 2097056,
      "componentType": 5126,
      "count": 44377,
      "max": [
        0.9997191429138184,
        0.9968260526657104
      ],
      "min": [
        0.028564453125,
        0.0002470804611220956
      ],
      "type": "VEC2"
    },
    {
      "bufferView": 1,
      "byteOffset": 2452072,
      "componentType": 5126,
      "count": 44377,
      "max": [
        0.9997191429138184,
        0.9968260526657104
      ],
      "min": [
        0.028564453125,
        0.0002470804611220956
      ],
      "type": "VEC2"
    },
    {
      "bufferView": 0,
      "byteOffset": 2388540,
      "componentType": 5125,
      "count": 183987,
      "type": "SCALAR"
    }
  ],
  "asset": {
    "extras": {
      "author": "Gamorin (https://sketchfab.com/Gamorin)",
      "license": "CC-BY-4.0 (http://creativecommons.org/licenses/by/4.0/)",
      "source": "https://sketchfab.com/3d-models/warhammer-dreadnought-06f3f12307cf4a98834b62b1ffba1911",
      "title": "Warhammer Dreadnought"
    },
    "generator": "Sketchfab-15.30.0",
    "version": "2.0"
  },
  "bufferViews": [
    {
      "buffer": 0,
      "byteLength": 3124488,
      "name": "floatBufferViews",
      "target": 34963
    },
    {
      "buffer": 0,
      "byteLength": 2807088,
      "byteOffset": 3124488,
      "byteStride": 8,
      "name": "floatBufferViews",
      "target": 34962
    },
    {
      "buffer": 0,
      "byteLength": 4210632,
      "byteOffset": 5931576,
      "byteStride": 12,
      "name": "floatBufferViews",
      "target": 34962
    }
  ],
  "buffers": [
    {
      "byteLength": 10142208,
      "uri": "scene.bin"
    }
  ],
  "extensionsUsed": [
    "KHR_materials_unlit"
  ],
  "images": [
    {
      "uri": "textures/tex_u1_v1_baseColor.jpeg"
    }
  ],
  "materials": [
    {
      "doubleSided": true,
      "extensions": {
        "KHR_materials_unlit": {}
      },
      "name": "tex_u1_v1",
      "pbrMetallicRoughness": {
        "baseColorTexture": {
          "index": 0
        },
        "metallicFactor": 0.0
      }
    }
  ],
  "meshes": [
    {
      "name": "model_tex_u1_v1_0",
      "primitives": [
        {
          "attributes": {
            "NORMAL": 1,
            "POSITION": 0,
            "TEXCOORD_0": 2,
            "TEXCOORD_1": 3
          },
          "indices": 4,
          "material": 0,
          "mode": 4
        }
      ]
    },
    {
      "name": "model_tex_u1_v1_0",
      "primitives": [
        {
          "attributes": {
            "NORMAL": 6,
            "POSITION": 5,
            "TEXCOORD_0": 7,
            "TEXCOORD_1": 8
          },
          "indices": 9,
          "material": 0,
          "mode": 4
        }
      ]
    },
    {
      "name": "model_tex_u1_v1_0",
      "primitives": [
        {
          "attributes": {
            "NORMAL": 11,
            "POSITION": 10,
            "TEXCOORD_0": 12,
            "TEXCOORD_1": 13
          },
          "indices": 14,
          "material": 0,
          "mode": 4
        }
      ]
    }
  ],
  "nodes": [
    {
      "children": [
        1
      ],
      "matrix": [
        1.0,
        0.0,
        0.0,
        0.0,
        0.0,
        2.220446049250313e-16,
        -1.0,
        0.0,
        0.0,
        1.0,
        2.220446049250313e-16,
        0.0,
        0.0,
        0.0,
        0.0,
        1.0
      ],
      "name": "Sketchfab_model"
    },
    {
      "children": [
        2
      ],
      "matrix": [
        1.0,
        0.0,
        0.0,
        0.0,
        0.0,
        0.0,
        1.0,
        0.0,
        0.0,
        -1.0,
        0.0,
        0.0,
        0.0,
        0.0,
        0.0,
        1.0
      ],
      "name": "model.fbx"
    },
    {
      "children": [
        3
      ],
      "name": "RootNode"
    },
    {
      "children": [
        4,
        5,
        6
      ],
      "matrix": [
        1.0,
        0.0,
        0.0,
        0.0,
        0.0,
        2.220446049250313e-16,
        -1.0,
        0.0,
        0.0,
        1.0,
        2.220446049250313e-16,
        0.0,
        0.0,
        0.0,
        0.0,
        1.0
      ],
      "name": "model"
    },
    {
      "mesh": 0,
      "name": "model_tex_u1_v1_0"
    },
    {
      "mesh": 1,
      "name": "model_tex_u1_v1_0"
    },
    {
      "mesh": 2,
      "name": "model_tex_u1_v1_0"
    }
  ],
  "samplers": [
    {
      "magFilter": 9729,
      "minFilter": 9987,
      "wrapS": 10497,
      "wrapT": 10497
    }
  ],
  "scene": 0,
  "scenes": [
    {
      "name": "Sketchfab_Scene",
      "nodes": [
        0
      ]
    }
  ],
  "textures": [
    {
      "sampler": 0,
      "source": 0
    }
  ]
}
