<svg xmlns="http://www.w3.org/2000/svg" version="1.1" xmlns:xlink="http://www.w3.org/1999/xlink" xmlns:svgjs="http://svgjs.dev/svgjs" width="2000" height="2066" viewBox="0 0 2000 2066"><g transform="matrix(1,0,0,1,-3.522931720836482,-3.330719711087795)"><svg viewBox="0 0 240 248" data-background-color="#ececea" preserveAspectRatio="xMidYMid meet" height="2066" width="2000" xmlns="http://www.w3.org/2000/svg" xmlns:xlink="http://www.w3.org/1999/xlink"><g id="tight-bounds" transform="matrix(1,0,0,1,0.42275180650037214,0.40002634420793015)"><svg viewBox="0 0 239.15449638699926 247.2" height="247.2" width="239.15449638699926"><g><svg viewBox="0 0 239.15449638699926 247.2" height="247.2" width="239.15449638699926"><g><svg viewBox="0 0 239.15449638699926 247.2" height="247.2" width="239.15449638699926"><g id="textblocktransform"><svg viewBox="0 0 239.15449638699926 247.2" height="247.2" width="239.15449638699926" id="textblock"><g><svg viewBox="0 0 239.15449638699926 247.2" height="247.2" width="239.15449638699926"><path d="M238.595 53.02C237.47 27.36 234.266 20.227 234.266 20.227 224.428-6.202 212.151-0.506 201.121 3.292 181.648 3.446 162.253 9.091 142.825 12.119 102.046 12.581 60.919 4.986 20.342 23.717 16.531 29.464-3.954 24.846 0.678 56.304 1.892 69.39 6.322 83.913 6.187 95.922 6.794 98.026 7.637 93.202 7.997 96.23 9.256 104.39 11.314 100.541 13 105.365 10.651 118.246 12.337 128.971 13.945 140.21 11.112 143.135 7.48 141.749 5.85 151.449 5.681 158.479 4.77 157.145 3.77 156.837 3.039 156.632 1.566 157.402 1.814 159.608 2.657 167.152-0.964 171.514 1.308 178.904-0.255 186.91 2.387 193.838 2.027 202.511 1.982 204.255 2.23 205.744 2.623 206.154 4.366 208.361 1.825 212.672 2.095 217.342 19.971 249.262 39.366 227.195 57.681 241.872 62.437 231.608 58.861 245.516 60.761 243.36 62.246 240.846 63.325 251.263 65 245.362 65.259 243.668 64.865 239.665 65.787 240.435 66.271 240.846 66.698 240.743 66.765 238.382 66.866 234.841 65.978 237.048 65.742 235.201 68.294 225.861 67.665 248.081 70.06 247.158 69.947 244.438 69.25 240.538 70.678 241.051 72.095 237.151 72.14 233.918 73.399 242.693 73.444 244.592 73.669 245.926 74.028 246.85 77.963 237.305 81.876 250.237 86.002 245.926 88.532 241.205 90.961 248.492 93.524 246.696 94.423 245.259 95.334 242.693 96.2 247.004 106.802 247.928 118.102 244.079 128.153 247.158 155.013 241.41 183.717 249.518 212.038 241.923 218.717 238.998 225.654 234.841 232.163 231.506 232.163 231.506 237.437 222.371 237.437 181.316S238.561 145.393 238.73 112.703C238.898 80.013 239.685 78.679 238.561 53.02Z" opacity="1" fill="#c682f9" data-fill-palette-color="tertiary"></path><g transform="matrix(1,0,0,1,55.76832000000001,26.230666666666668)"><svg width="127.61785638699924" viewBox="2.13 -32.5 21.67 33.08" height="194.73866666666666" data-palette-color="#ececea"><path d="M12.68 0.58L12.68 0.58Q10.38 0.58 8.46 0.2 6.55-0.18 5.05-0.73 3.55-1.28 2.55-1.83L2.55-1.83 2.13-5.95Q4.05-4.8 6.66-3.94 9.28-3.08 12.35-3.08L12.35-3.08Q16.05-3.08 17.82-4.39 19.6-5.7 19.6-8.33L19.6-8.33 19.6-8.72Q19.6-10.45 18.9-11.55 18.2-12.65 16.54-13.4 14.88-14.15 12.03-14.8L12.03-14.8Q8.43-15.65 6.26-16.81 4.1-17.98 3.14-19.73 2.18-21.48 2.18-24.08L2.18-24.08 2.18-24.3Q2.18-28.23 4.75-30.36 7.33-32.5 12.55-32.5L12.55-32.5Q15.98-32.5 18.39-31.8 20.8-31.1 22.33-30.25L22.33-30.25 22.7-26.45Q20.93-27.5 18.56-28.24 16.2-28.98 13.15-28.98L13.15-28.98Q10.73-28.98 9.22-28.4 7.73-27.83 7.05-26.75 6.38-25.68 6.38-24.15L6.38-24.15 6.38-24.05Q6.38-22.5 7.04-21.4 7.7-20.3 9.36-19.5 11.03-18.7 14.1-17.95L14.1-17.95Q17.63-17.13 19.75-16.05 21.88-14.98 22.84-13.25 23.8-11.53 23.8-8.75L23.8-8.75 23.8-8.22Q23.8-3.9 21.01-1.66 18.23 0.58 12.68 0.58Z" opacity="1" transform="matrix(1,0,0,1,0,0)" fill="#ececea" class="wordmark-text-0" data-fill-palette-color="quaternary" id="text-0"></path></svg></g></svg></g></svg></g></svg></g><g></g></svg></g><defs></defs></svg><rect width="239.15449638699926" height="247.2" fill="none" stroke="none" visibility="hidden"></rect></g></svg></g></svg>